<svg width="58" height="12" viewBox="0 0 58 12" fill="none" xmlns="http://www.w3.org/2000/svg">
<path d="M12.5496 3.35049V8.19823C12.5453 9.04602 12.1912 9.85792 11.5642 10.4575C10.9372 11.057 10.088 11.3957 9.20114 11.4C8.15634 11.4 7.30126 11.0176 6.63591 10.2528C5.963 11.0181 5.10391 11.4005 4.05863 11.4C3.17181 11.3957 2.3226 11.057 1.69558 10.4575C1.06857 9.85792 0.714429 9.04602 0.710144 8.19823V3.35049H2.27735V8.19823C2.27829 8.64958 2.46626 9.0822 2.80011 9.40136C3.13396 9.72051 3.58649 9.90021 4.05863 9.9011C4.29199 9.90486 4.52375 9.8636 4.74005 9.77977C4.95635 9.69594 5.15275 9.57126 5.3175 9.41321C5.48617 9.25693 5.62037 9.06991 5.71217 8.86321C5.80396 8.65651 5.85149 8.43431 5.85195 8.20975V3.35049H7.41987V8.20975C7.4163 8.43383 7.46082 8.65622 7.55067 8.86321C7.64052 9.0702 7.7738 9.25739 7.94227 9.41321C8.10702 9.57126 8.30341 9.69594 8.51971 9.77977C8.73602 9.8636 8.96778 9.90486 9.20114 9.9011C9.67339 9.90057 10.1261 9.72099 10.4601 9.40175C10.794 9.08252 10.9819 8.64969 10.9824 8.19823V3.35049H12.5496Z" fill="white"/>
<path d="M18.447 8.1264C18.6151 8.63277 18.9429 9.07704 19.3855 9.39831C19.8397 9.72702 20.3951 9.90264 20.9648 9.89772C21.4496 9.89381 21.9277 9.7893 22.3661 9.59143C22.8576 9.37911 23.2179 9.11032 23.4471 8.78506L24.7414 9.62531C24.3671 10.1552 23.8256 10.5828 23.1168 10.9081C22.4484 11.2254 21.7131 11.3925 20.9669 11.3966C20.412 11.4049 19.8613 11.3044 19.3486 11.1012C18.836 10.8981 18.3723 10.5966 17.9863 10.2155C17.1626 9.42903 16.7511 8.48306 16.7515 7.37762C16.7525 6.30972 17.1967 5.28582 17.9866 4.53076C18.7766 3.77571 19.8477 3.35121 20.9648 3.35049C22.1211 3.35049 23.1109 3.74397 23.934 4.53092C24.3327 4.89954 24.6482 5.34226 24.8612 5.83183C25.0741 6.3214 25.18 6.84746 25.1723 7.37762C25.1726 7.62517 25.1489 7.87221 25.1015 8.11556L18.447 8.1264ZM20.9648 4.84602C20.395 4.84079 19.8396 5.01643 19.3855 5.34543C18.9406 5.6692 18.6126 6.11763 18.447 6.62817H23.4712C23.3059 6.11767 22.9781 5.66923 22.5334 5.34543C22.0828 5.01742 21.5311 4.84176 20.9648 4.84602Z" fill="white"/>
<path d="M29.2616 11.3966V7.37763C29.2528 6.84712 29.3578 6.32053 29.5702 5.83034C29.7826 5.34015 30.0978 4.89676 30.4963 4.52753C31.32 3.74284 32.3097 3.35049 33.4656 3.35049C34.5838 3.35049 35.6561 3.77514 36.4468 4.531C37.2375 5.28687 37.6817 6.31205 37.6817 7.38101V11.4H36.1137V7.37763C36.1137 6.70764 35.8353 6.06509 35.3398 5.59134C34.8442 5.11759 34.1721 4.85144 33.4713 4.85144C32.7704 4.85144 32.0983 5.11759 31.6027 5.59134C31.1072 6.06509 30.8288 6.70764 30.8288 7.37763V11.3966H29.2616Z" fill="white"/>
<path d="M41.7737 0.599998H43.3409V2.05283H41.7737V0.599998ZM41.7737 3.3471H43.3409V11.3966H41.7737V3.3471Z" fill="white"/>
<path d="M57.2899 3.35049L53.7273 10.6472C53.491 11.1464 53.0832 11.3962 52.5039 11.3966C51.9245 11.3971 51.5129 11.1473 51.2691 10.6472L47.7066 3.35049H49.4404L52.3026 9.20858C52.3201 9.24571 52.3484 9.27722 52.3842 9.29933C52.4199 9.32144 52.4616 9.33321 52.5042 9.33321C52.5468 9.33321 52.5885 9.32144 52.6243 9.29933C52.6601 9.27722 52.6884 9.24571 52.7059 9.20858L55.5681 3.35049H57.2899Z" fill="white"/>
</svg>
